<svg width="200" height="200" viewBox="0 0 200 200" fill="none" xmlns="http://www.w3.org/2000/svg">
<path d="M118 138L68 176L139.5 191.5L189.5 153.5L118 138Z" fill="black"/>
<path d="M86.8145 143.75L36.8145 181.75L27.8145 119.25L77.8145 81.25L86.8145 143.75Z" fill="#444444" stroke="#191919" stroke-width="0.5" stroke-miterlimit="10" stroke-linejoin="round"/>
<path d="M158.314 159.25L86.8145 143.75L77.8145 81.25L149.314 96.75L158.314 159.25Z" fill="#B0B0B0" stroke="#191919" stroke-width="0.5" stroke-miterlimit="10" stroke-linejoin="round"/>
<path d="M108.314 197.25L36.8145 181.75L27.8145 119.25L99.3145 134.75L108.314 197.25Z" fill="#F9FFFF" stroke="#191919" stroke-width="0.5" stroke-miterlimit="10" stroke-linejoin="round"/>
<path d="M158.314 159.25L108.314 197.25L99.3145 134.75L149.314 96.75L158.314 159.25Z" fill="#D7D7D7" stroke="#191919" stroke-width="0.5" stroke-miterlimit="10" stroke-linejoin="round"/>
<path d="M77.8146 190.64L67.0646 188.5C67.0646 188.5 64.3146 163.75 45.3146 154.75C45.1146 154.655 44.9196 154.565 44.7246 154.48C47.8946 153.74 51.7246 154.075 56.3146 156.25C75.3146 165.25 77.8146 190.64 77.8146 190.64Z" fill="#B0B0B0" stroke="#191919" stroke-width="0.5" stroke-miterlimit="10"/>
<path d="M44.7245 154.48C34.7645 156.805 31.3145 169.75 31.3145 169.75L20.3145 168.25C20.3145 168.25 26.1895 146.215 44.7245 154.48Z" fill="white" stroke="#191919" stroke-width="0.5" stroke-miterlimit="10"/>
<path d="M179.064 142L171.564 148.5C166.129 142.65 152.659 137.495 142.254 143.265C142.659 142.66 143.099 142.07 143.564 141.5C154.564 128 172.564 135 179.064 142Z" fill="white" stroke="#191919" stroke-width="0.5" stroke-miterlimit="10"/>
<path d="M137.066 175.5L129.266 181.325C129.266 181.325 126.066 160.5 136.566 148C138.286 145.95 140.211 144.395 142.256 143.265C133.591 156.04 137.066 175.5 137.066 175.5Z" fill="#444444" stroke="#191919" stroke-width="0.5" stroke-miterlimit="10"/>
<path d="M164.814 91.25L99.8145 78.25L69.8145 11.75L134.814 24.75L164.814 91.25Z" stroke="#191919" stroke-width="0.5" stroke-miterlimit="10" stroke-linejoin="round"/>
<path d="M174.314 81.75L109.314 68.75L79.3145 2.25L144.314 15.25L174.314 81.75Z" fill="#444444" stroke="#191919" stroke-width="0.5" stroke-miterlimit="10" stroke-linejoin="round"/>
<path d="M109.314 68.75L99.8145 78.25L164.814 91.25L174.314 81.75L109.314 68.75Z" fill="#B0B0B0" stroke="#191919" stroke-width="0.5" stroke-miterlimit="10" stroke-linejoin="round"/>
<path d="M79.3145 2.25L69.8145 11.75L99.8145 78.25L109.314 68.75L79.3145 2.25Z" fill="#B0B0B0" stroke="#191919" stroke-width="0.5" stroke-miterlimit="10" stroke-linejoin="round"/>
<path d="M164.814 91.25L174.314 81.75L144.314 15.25L134.814 24.75L164.814 91.25Z" fill="white" stroke="#191919" stroke-width="0.5" stroke-miterlimit="10" stroke-linejoin="round"/>
<path d="M69.8145 11.75L79.3145 2.25L144.314 15.25L134.814 24.75L69.8145 11.75Z" fill="white" stroke="#191919" stroke-width="0.5" stroke-miterlimit="10" stroke-linejoin="round"/>
<path d="M22.9638 66.5205L21.2715 68.0648L22.1176 57.5443L23.8099 56L22.9638 66.5205Z" fill="#444444"/>
<path d="M43.4135 83.1773L41.7212 84.7217L31.0706 81.6566L32.7687 80.1123L43.4135 83.1773Z" fill="#444444"/>
<path d="M23.5796 76.0938L21.8873 77.6381L12 71.7211L13.6923 70.1768L23.5796 76.0938Z" fill="#444444"/>
<path d="M24.0129 56.5889L31.5842 64.7907L31.6642 64.8773L31.7819 64.8707L41.7715 64.3088L37.6019 72.9142L37.5456 73.0305L37.6079 73.1438L42.9035 82.7701L32.837 79.8716L32.6965 79.8311L32.5923 79.9339L25.9618 86.4741L23.8236 76.044L23.8015 75.9362L23.7071 75.8797L14.2555 70.2234L23.0551 66.753L23.2001 66.6958L23.2126 66.5405L24.0129 56.5889Z" fill="#D7D7D7" stroke="black" stroke-width="0.5"/>
<path d="M25.8097 86.9751L24.1115 88.5195L21.8867 77.6381L23.579 76.0938L25.8097 86.9751Z" fill="#444444"/>
</svg>
