<svg width="333" height="84" viewBox="0 0 333 84" fill="none" xmlns="http://www.w3.org/2000/svg">
<path d="M1.54035 83.1768C0.513474 83.1768 3.73061e-05 82.6633 3.73061e-05 81.6364V24.5218C3.73061e-05 23.9878 0.205412 23.3717 0.616161 22.6734L15.2183 1.97168C15.6701 1.35556 16.3273 1.0475 17.1899 1.0475H37.5836C38.4872 1.0475 39.1444 1.35556 39.5552 1.97168L54.2189 22.6734C54.6297 23.2485 54.835 23.8646 54.835 24.5218V81.6364C54.835 82.6633 54.3216 83.1768 53.2947 83.1768H35.8584C34.8316 83.1768 34.3181 82.6633 34.3181 81.6364V55.4512H20.5786V81.6364C20.5786 82.6633 20.0651 83.1768 19.0383 83.1768H1.54035ZM27.4175 42.2045C31.1964 42.2045 33.7431 41.383 35.0575 39.7401C36.4129 38.056 37.0907 34.8727 37.0907 30.1901C37.0907 25.5076 36.4129 22.3448 35.0575 20.7018C33.7431 19.0178 31.1964 18.1757 27.4175 18.1757C23.6797 18.1757 21.1331 19.0178 19.7776 20.7018C18.4632 22.3448 17.806 25.5076 17.806 30.1901C17.806 34.8727 18.4632 38.056 19.7776 39.7401C21.1331 41.383 23.6797 42.2045 27.4175 42.2045ZM89.5959 83.1768C88.6512 83.1768 87.8297 82.8276 87.1314 82.1293L74.809 69.8069C74.1107 69.1497 73.7616 68.3282 73.7616 67.3424V31.2375C73.7616 30.2517 74.1107 29.4303 74.809 28.7731L87.1314 16.4506C87.8297 15.7523 88.6512 15.4032 89.5959 15.4032H99.0226C100.008 15.4032 100.83 15.7523 101.487 16.4506L104.568 19.5312V2.5878C104.568 1.56093 105.081 1.0475 106.108 1.0475H122.559C123.585 1.0475 124.099 1.56093 124.099 2.5878V81.6364C124.099 82.6633 123.585 83.1768 122.559 83.1768H109.743C109.209 83.1768 108.798 83.0741 108.511 82.8687C108.264 82.6633 107.977 82.4169 107.648 82.1293L104.568 79.0487L101.487 82.1293C100.83 82.8276 100.008 83.1768 99.0226 83.1768H89.5959ZM96.8046 68.8211H101.117C102.432 68.8211 103.335 68.5541 103.828 68.0201C104.321 67.4861 104.568 66.5414 104.568 65.186V29.7589H96.8046C95.4491 29.7589 94.5249 30.0258 94.032 30.5598C93.5391 31.0938 93.2927 32.0385 93.2927 33.394V65.186C93.2927 66.5414 93.5391 67.4861 94.032 68.0201C94.5249 68.5541 95.4491 68.8211 96.8046 68.8211ZM144.922 83.1768C143.895 83.1768 143.382 82.6633 143.382 81.6364V16.9435C143.382 15.9166 143.895 15.4032 144.922 15.4032H172.956C173.9 15.4032 174.722 15.7523 175.42 16.4506L182.998 24.0289H185.278L192.856 16.4506C193.555 15.7523 194.376 15.4032 195.321 15.4032H208.691C209.635 15.4032 210.457 15.7523 211.155 16.4506L223.478 28.7731C224.176 29.4303 224.525 30.2517 224.525 31.2375V81.6364C224.525 82.6633 224.012 83.1768 222.985 83.1768H206.534C205.507 83.1768 204.994 82.6633 204.994 81.6364V33.394C204.994 31.6688 204.131 30.8063 202.406 30.8063H193.719V81.6364C193.719 82.6633 193.205 83.1768 192.179 83.1768H175.728C174.701 83.1768 174.188 82.6633 174.188 81.6364V33.394C174.188 31.6688 173.325 30.8063 171.6 30.8063H162.913V81.6364C162.913 82.6633 162.399 83.1768 161.372 83.1768H144.922ZM245.398 83.1768C244.371 83.1768 243.858 82.6633 243.858 81.6364V16.9435C243.858 15.9166 244.371 15.4032 245.398 15.4032H261.787C262.814 15.4032 263.327 15.9166 263.327 16.9435V81.6364C263.327 82.6633 262.814 83.1768 261.787 83.1768H245.398ZM245.09 10.2893C244.269 10.2893 243.858 9.8786 243.858 9.0571V1.23233C243.858 0.410837 244.269 8.83672e-05 245.09 8.83672e-05H262.218C262.958 8.83672e-05 263.327 0.410837 263.327 1.23233V9.0571C263.327 9.8786 262.958 10.2893 262.218 10.2893H245.09ZM284.142 83.1768C283.115 83.1768 282.601 82.6633 282.601 81.6364V16.9435C282.601 15.9166 283.115 15.4032 284.142 15.4032H317.104C318.049 15.4032 318.871 15.7523 319.569 16.4506L331.891 28.7731C332.59 29.4303 332.939 30.2517 332.939 31.2375V81.6364C332.939 82.6633 332.425 83.1768 331.398 83.1768H314.948C313.921 83.1768 313.408 82.6633 313.408 81.6364V33.702C313.408 31.7715 312.442 30.8063 310.512 30.8063H302.133V81.6364C302.133 82.6633 301.619 83.1768 300.592 83.1768H284.142Z" fill="#080808"/>
</svg>
