<svg width="195" height="197" viewBox="0 0 195 197" fill="none" xmlns="http://www.w3.org/2000/svg">
<path d="M1.8504 0.55422C35.8712 0.375558 35.8712 0.375558 50.4291 0.336719C60.343 0.310143 70.2568 0.278782 80.1707 0.218181C88.1679 0.169604 96.165 0.143108 104.162 0.131597C107.206 0.123398 110.249 0.107389 113.293 0.0832536C117.572 0.0506814 121.851 0.046475 126.13 0.0485299C127.374 0.032515 128.618 0.0165002 129.9 0C147.102 0.0887492 163.305 6.81149 176.078 18.5807C190.833 34.7491 195.439 50.5773 194.968 72.1613C194.127 90.1579 186.219 104.471 173.501 116.798C159.584 128.166 143.652 133.784 125.969 132.029C123.918 131.797 123.918 131.797 121.826 131.559C96.4054 128.977 73.1501 126.773 52.3008 144.101C35.5681 159.089 20.8574 176.511 6.96683 194.191C6.24177 194.969 5.51671 195.747 4.76968 196.549C3.80632 196.549 2.84296 196.549 1.8504 196.549C1.8504 174.989 1.8504 153.43 1.8504 131.217C22.081 130.727 42.3116 130.237 63.1553 129.732C55.4467 120.676 55.4467 120.676 47.4025 112.031C45.9713 110.568 45.9713 110.568 44.5111 109.076C43.5194 108.07 42.5276 107.064 41.5059 106.028C40.4581 104.96 39.4103 103.893 38.3308 102.794C36.1383 100.562 33.9439 98.3327 31.7477 96.1049C28.3762 92.6833 25.0126 89.2537 21.6496 85.8233C19.511 83.6488 17.3719 81.4747 15.2323 79.3012C14.2258 78.2743 13.2193 77.2475 12.1823 76.1895C11.2512 75.2469 10.32 74.3044 9.36064 73.3333C8.54224 72.502 7.72384 71.6706 6.88063 70.8141C4.79373 68.699 5.52355 68.6991 2.58022 67.3706C2.58022 45.3212 1.8504 23.2718 1.8504 0.55422Z" fill="#FFB800"/>
<path d="M3.30967 2.03857C24.022 2.03857 44.7343 2.03857 66.0742 2.03857C66.0742 44.1774 66.0742 86.3162 66.0742 129.732C65.1108 129.732 64.1475 129.732 63.1549 129.732C61.0515 127.482 61.0515 127.482 58.6046 124.412C54.1804 119.119 49.5522 114.789 44.2141 110.479C3.47638 77.5271 3.47638 77.5271 0.404934 54.0375C-0.966674 36.3723 1.43444 19.8799 3.30967 2.03857Z" fill="#FFB800"/>
<path d="M4.03232 1.2966C49.3104 1.2966 93.8663 0.554199 140.516 0.554199C140.516 1.04419 140.516 1.53417 140.516 2.03901C117.162 2.52899 93.8085 3.01898 69.7469 3.52381C69.7469 45.1726 69.7469 86.8215 69.7469 129.732C103.348 130.467 103.348 130.467 137.628 131.217C137.628 131.707 137.628 131.455 137.628 131.96C134.889 131.537 134.889 132.28 132.094 131.849C107.645 128.47 78.649 124.767 57.5996 140.378C38.9496 155.614 23.1699 175.157 8.37275 194.191C7.65532 194.969 6.9379 195.747 6.19873 196.549C5.24551 196.549 4.29229 196.549 3.31018 196.549C3.31018 174.989 3.31018 153.43 3.31018 131.217C23.8045 130.727 44.2987 130.237 65.414 129.732C65.8907 87.5936 66.3673 45.4548 66.8583 2.03901C46.364 2.03901 25.8698 2.03901 4.75446 2.03901C4.75446 23.5984 4.75446 45.1578 4.75446 67.3705C4.27785 67.3705 4.52337 66.6281 4.03232 66.6281C4.03232 44.5787 4.03232 24.0141 4.03232 1.2966Z" fill="#FFB800"/>
<path d="M3.31004 2.03901C49.0698 2.03901 93.3699 0.554199 140.516 0.554199C140.516 1.04419 140.516 1.53417 140.516 2.03901C116.914 2.52899 93.3115 3.01898 68.9939 3.52381C68.9939 45.1726 68.9939 86.8215 68.9939 129.732C102.952 130.467 102.952 130.467 137.597 131.217C137.597 131.707 137.597 131.455 137.597 131.96C92.7402 133.212 48.1707 134.138 3.31004 132.702C3.79172 153.771 4.27341 174.841 4.76968 196.549C3.80632 196.549 2.84296 196.549 1.8504 196.549C1.8504 174.989 1.8504 153.43 1.8504 131.217C22.5627 130.727 43.275 130.237 64.6149 129.732C65.0966 87.5936 65.5783 45.4548 66.0746 2.03901C45.3623 2.03901 24.65 2.03901 3.31004 2.03901C3.31004 23.5984 3.31004 45.1578 3.31004 67.3705C2.82836 67.3705 3.0765 66.6281 2.58022 66.6281C2.58022 44.5787 3.31004 24.7565 3.31004 2.03901Z" fill="#FFB800"/>
<rect x="59.9392" y="36.144" width="83.2392" height="66.3664" rx="4.49941" fill="white"/>
</svg>
