<svg width="543" height="246" viewBox="0 0 543 246" fill="none" xmlns="http://www.w3.org/2000/svg">
<path d="M1.8504 49.5542C35.8712 49.3756 35.8712 49.3756 50.4291 49.3367C60.343 49.3101 70.2568 49.2788 80.1707 49.2182C88.1679 49.1696 96.165 49.1431 104.162 49.1316C107.206 49.1234 110.249 49.1074 113.293 49.0833C117.572 49.0507 121.851 49.0465 126.13 49.0485C127.374 49.0325 128.618 49.0165 129.9 49C147.102 49.0887 163.305 55.8115 176.078 67.5807C190.833 83.7491 195.439 99.5773 194.968 121.161C194.127 139.158 186.219 153.471 173.501 165.798C159.584 177.166 143.652 182.784 125.969 181.029C123.918 180.797 123.918 180.797 121.826 180.559C96.4054 177.977 73.1501 175.773 52.3008 193.101C35.5681 208.089 20.8574 225.511 6.96683 243.191C6.24177 243.969 5.51671 244.747 4.76968 245.549C3.80632 245.549 2.84296 245.549 1.8504 245.549C1.8504 223.989 1.8504 202.43 1.8504 180.217C22.081 179.727 42.3116 179.237 63.1553 178.732C55.4467 169.676 55.4467 169.676 47.4025 161.031C45.9713 159.568 45.9713 159.568 44.5111 158.076C43.5194 157.07 42.5276 156.064 41.5059 155.028C40.4581 153.96 39.4103 152.893 38.3308 151.794C36.1383 149.562 33.9439 147.333 31.7477 145.105C28.3762 141.683 25.0126 138.254 21.6496 134.823C19.511 132.649 17.3719 130.475 15.2323 128.301C14.2258 127.274 13.2193 126.247 12.1823 125.189C11.2512 124.247 10.32 123.304 9.36064 122.333C8.54224 121.502 7.72384 120.671 6.88063 119.814C4.79373 117.699 5.52355 117.699 2.58022 116.371C2.58022 94.3212 1.8504 72.2718 1.8504 49.5542Z" fill="#FFB800"/>
<path d="M3.30967 51.0386C24.022 51.0386 44.7343 51.0386 66.0742 51.0386C66.0742 93.1774 66.0742 135.316 66.0742 178.732C65.1108 178.732 64.1475 178.732 63.1549 178.732C61.0515 176.482 61.0515 176.482 58.6046 173.412C54.1804 168.119 49.5522 163.789 44.2141 159.479C3.47638 126.527 3.47638 126.527 0.404934 103.037C-0.966674 85.3723 1.43444 68.8799 3.30967 51.0386Z" fill="#FFB800"/>
<path d="M4.03232 50.2966C49.3104 50.2966 93.8663 49.5542 140.516 49.5542C140.516 50.0442 140.516 50.5342 140.516 51.039C117.162 51.529 93.8085 52.019 69.7469 52.5238C69.7469 94.1726 69.7469 135.821 69.7469 178.732C103.348 179.467 103.348 179.467 137.628 180.217C137.628 180.707 137.628 180.455 137.628 180.96C134.889 180.537 134.889 181.28 132.094 180.849C107.645 177.47 78.649 173.767 57.5996 189.378C38.9496 204.614 23.1699 224.157 8.37275 243.191C7.65532 243.969 6.9379 244.747 6.19873 245.549C5.24551 245.549 4.29229 245.549 3.31018 245.549C3.31018 223.989 3.31018 202.43 3.31018 180.217C23.8045 179.727 44.2987 179.237 65.414 178.732C65.8907 136.594 66.3673 94.4548 66.8583 51.039C46.364 51.039 25.8698 51.039 4.75446 51.039C4.75446 72.5984 4.75446 94.1578 4.75446 116.37C4.27785 116.37 4.52337 115.628 4.03232 115.628C4.03232 93.5787 4.03232 73.0141 4.03232 50.2966Z" fill="#FFB800"/>
<path d="M3.31004 51.039C49.0698 51.039 93.3699 49.5542 140.516 49.5542C140.516 50.0442 140.516 50.5342 140.516 51.039C116.914 51.529 93.3115 52.019 68.9939 52.5238C68.9939 94.1726 68.9939 135.821 68.9939 178.732C102.952 179.467 102.952 179.467 137.597 180.217C137.597 180.707 137.597 180.455 137.597 180.96C92.7402 182.212 48.1707 183.138 3.31004 181.702C3.79172 202.771 4.27341 223.841 4.76968 245.549C3.80632 245.549 2.84296 245.549 1.8504 245.549C1.8504 223.989 1.8504 202.43 1.8504 180.217C22.5627 179.727 43.275 179.237 64.6149 178.732C65.0966 136.594 65.5783 94.4548 66.0746 51.039C45.3623 51.039 24.65 51.039 3.31004 51.039C3.31004 72.5984 3.31004 94.1578 3.31004 116.37C2.82836 116.37 3.0765 115.628 2.58022 115.628C2.58022 93.5787 3.31004 73.7565 3.31004 51.039Z" fill="#FFB800"/>
<rect x="59.9392" y="85.144" width="83.2392" height="66.3664" rx="4.49941" fill="#FFFFFF"/>
<path d="M239.412 175C238.069 175 236.901 174.504 235.908 173.511L218.388 155.991C217.395 155.056 216.899 153.888 216.899 152.487V101.153C216.899 99.7516 217.395 98.5836 218.388 97.6492L235.908 80.1292C236.901 79.1364 238.069 78.64 239.412 78.64H286.278C287.738 78.64 288.468 79.37 288.468 80.83V172.81C288.468 174.27 287.738 175 286.278 175H268.057C267.298 175 266.714 174.854 266.305 174.562C265.955 174.27 265.546 173.92 265.079 173.511L260.699 169.131L256.319 173.511C255.384 174.504 254.216 175 252.815 175H239.412ZM249.661 154.589H255.793C257.662 154.589 258.947 154.21 259.648 153.45C260.348 152.691 260.699 151.348 260.699 149.421V99.0508H249.661C247.734 99.0508 246.42 99.4304 245.719 100.19C245.018 100.949 244.668 102.292 244.668 104.219V149.421C244.668 151.348 245.018 152.691 245.719 153.45C246.42 154.21 247.734 154.589 249.661 154.589ZM334.105 204.171C332.645 204.171 331.915 203.441 331.915 201.981V188.315C331.915 187.206 332.353 186.563 333.229 186.388L346.106 183.147L355.129 178.329C356.005 177.862 356.443 176.956 356.443 175.613V161.247L348.296 168.868C347.303 169.861 346.135 170.357 344.792 170.357L329.9 170.883C328.557 170.883 327.389 170.416 326.396 169.481L310.365 153.363C309.372 152.428 308.876 151.26 308.876 149.859V80.83C308.876 79.37 309.606 78.64 311.066 78.64H334.455C335.915 78.64 336.645 79.37 336.645 80.83V146.793C336.645 148.72 336.996 150.063 337.696 150.822C338.397 151.582 339.682 151.961 341.551 151.961H352.676V80.83C352.676 79.37 353.406 78.64 354.866 78.64H378.255C379.715 78.64 380.445 79.37 380.445 80.83V186.125C380.445 187.877 379.949 189.045 378.956 189.629L367.305 197.075L352.501 203.207C351.625 203.558 350.953 203.791 350.486 203.908C350.077 204.083 349.406 204.171 348.471 204.171H334.105ZM403.115 175C401.655 175 400.925 174.27 400.925 172.81V80.83C400.925 79.37 401.655 78.64 403.115 78.64H416.43C417.539 78.64 418.503 79.1364 419.321 80.1292L427.905 90.028L437.454 79.6912C438.096 78.9904 438.914 78.64 439.907 78.64H449.367C450.827 78.64 451.557 79.37 451.557 80.83V99.664C451.557 100.598 451.499 101.241 451.382 101.591C451.265 101.883 450.944 102.204 450.419 102.555L428.694 118.586V172.81C428.694 174.27 427.964 175 426.504 175H403.115ZM483.905 175C482.562 175 481.394 174.504 480.401 173.511L462.881 155.991C461.888 155.056 461.392 153.888 461.392 152.487V101.153C461.392 99.7516 461.888 98.5836 462.881 97.6492L480.401 80.1292C481.394 79.1364 482.562 78.64 483.905 78.64H530.771C532.231 78.64 532.961 79.37 532.961 80.83V172.81C532.961 174.27 532.231 175 530.771 175H512.55C511.791 175 511.207 174.854 510.798 174.562C510.448 174.27 510.039 173.92 509.572 173.511L505.192 169.131L500.812 173.511C499.877 174.504 498.709 175 497.308 175H483.905ZM494.154 154.589H500.286C502.155 154.589 503.44 154.21 504.141 153.45C504.841 152.691 505.192 151.348 505.192 149.421V99.0508H494.154C492.227 99.0508 490.913 99.4304 490.212 100.19C489.511 100.949 489.161 102.292 489.161 104.219V149.421C489.161 151.348 489.511 152.691 490.212 153.45C490.913 154.21 492.227 154.589 494.154 154.589Z" fill="black"/>
</svg>
